<svg xmlns="http://www.w3.org/2000/svg" width="152.685" height="194.499" viewBox="0 0 152.685 194.499">
  <defs>
    <style>
      .cls-1 {
        fill: #fff;
        fill-rule: evenodd;
      }
    </style>
  </defs>
  <path id="Clapping" class="cls-1" d="M1034.07,950.094c0.08,0.2.18,0.448,0.32,0.789C1034.3,950.671,1034.18,950.362,1034.07,950.094Zm0,0c-0.11-.25-0.17-0.406-0.2-0.47C1033.91,949.7,1033.98,949.888,1034.07,950.094Zm85.06-48.081a24.706,24.706,0,0,1-.31,5.845s-2.03,13.185-.29,23.984c0,0,1.31,9.725,1.42,15.815a79.334,79.334,0,0,1-5.13,32.874c-9.26,19.779-26.08,23.3-26.08,23.3a34.51,34.51,0,0,1-33.21-.63c-12.69-5.906-22.97-24.424-22.97-24.424l-10.03-18.348a8.74,8.74,0,0,1-1.47-1.929l-17.28-30.665c-2.17-3.849-1.08-8.568,2.43-10.54l0.63-.357c3.51-1.972,8.12-.45,10.29,3.4L1034.41,951a0.917,0.917,0,0,0,.07.135,0.109,0.109,0,0,1,.01-0.019,2.932,2.932,0,0,0,.21.448c0.01,0.034.03,0.068,0.04,0.1,1.43,2.716,3.43,1.079,3.43,1.079,1.05-1.024.31-2.794,0.11-3.22l-8.97-15.917a8.648,8.648,0,0,1-1.07-1.5l-17.28-30.664c-2.17-3.85-1.08-8.568,2.43-10.54l0.63-.357c3.51-1.972,8.12-.45,10.28,3.4l12.71,22.556a8.724,8.724,0,0,1,1.08,1.5l10.38,18.421v-0.06c1.49,2.95,2.89,1.811,2.89,1.811a2.207,2.207,0,0,0,.97-1.874l-12.54-22.268a8.533,8.533,0,0,1-1.19-1.621l-17.28-30.665c-2.17-3.849-1.08-8.568,2.43-10.539l0.64-.357c3.51-1.972,8.11-.45,10.28,3.4l16.75,29.73a8.533,8.533,0,0,1,1.19,1.621l12.98,23.037,0.04-.335c2.74,4.11,3.86,2.414,3.86,2.414a1.65,1.65,0,0,0,1.22-1.912l-13.5-23.948c-0.1-.177-0.18-0.358-0.27-0.539l-13.69-24.3c-2.17-3.849-1.08-8.568,2.43-10.54l0.63-.357c3.51-1.972,8.12-.45,10.29,3.4l17.28,30.665c0.1,0.178.18,0.359,0.27,0.54l6.39,11.339,10.99,18.022h0l1.33,2.17-0.01.1a7.773,7.773,0,0,0,5.8,3.518s4.06,0.411,3.46-6.566c0,0-.46-21.321,1.67-25.128a12.9,12.9,0,0,1,9.2-10.358S1119.34,895.707,1119.13,902.013Zm-20.6,3.9c-2.27,2.811-1.92,27.659-1.92,27.659l-28.86-49.64a6.845,6.845,0,0,0,.86-0.655s3.17-2.567-2.19-7.08c0,0-15.4-14.772-16.58-18.97a12.843,12.843,0,0,1-.8-13.808s3.72-5.265,8.03-.658a25.251,25.251,0,0,1,3.92,4.358s7.88,10.763,16.75,17.18c0,0,7.81,5.961,12.19,10.2a82.713,82.713,0,0,1,16.22,20.124C1099.99,898.231,1098.53,905.913,1098.53,905.913Zm-62.98-60.9a5.192,5.192,0,0,1-5.84,4.384,5.1,5.1,0,0,1-4.35-5.8l2.37-16.291a5.192,5.192,0,0,1,5.84-4.383,5.1,5.1,0,0,1,4.35,5.8Zm-21.58-7.567a5.117,5.117,0,0,1-7.02-1.974l-7.873-14.46a5.252,5.252,0,0,1,2.1-7.063,5.131,5.131,0,0,1,7.03,1.974l7.87,14.46A5.25,5.25,0,0,1,1013.97,837.449Zm-3.36,17.617a5.167,5.167,0,0,1-7.14,1.464l-13.692-9.048A5.158,5.158,0,0,1,995.5,838.9l13.691,9.048A5.114,5.114,0,0,1,1010.61,855.066Zm7.21,30.592a12.209,12.209,0,0,0-7.74,1.251l-22.392-6.294c-4.26-1.2-6.826-5.3-5.73-9.171l0.2-.7c1.095-3.867,5.438-6.031,9.7-4.833l24.835,6.983C1015.41,874.721,1014.05,878.66,1017.82,885.658Zm-13.49,9.692a24.542,24.542,0,0,0,2.62,11.371l-33.594-9.445c-4.26-1.2-6.826-5.3-5.73-9.171l0.2-.7c1.1-3.867,5.437-6.031,9.7-4.833l28.707,8.07A15.821,15.821,0,0,0,1004.33,895.35Zm-9.213,61.88a5.13,5.13,0,0,1-3.007,6.615l-15.4,5.732a5.152,5.152,0,0,1-3.614-9.649l15.4-5.731A5.157,5.157,0,0,1,995.117,957.23Zm-19,30.569,10.963-12.313a5.13,5.13,0,0,1,7.293-.342,5.243,5.243,0,0,1,.44,7.353L983.845,994.81a5.129,5.129,0,0,1-7.292.342A5.241,5.241,0,0,1,976.113,987.8Zm3.818-69.283c-4.26-1.2-6.825-5.3-5.729-9.17l0.2-.7c1.1-3.866,5.438-6.03,9.7-4.833l24.962,7.02c0.2,0.012.4,0.041,0.59,0.066,0.32,0.387.64,0.772,0.99,1.15a12.451,12.451,0,0,0-12.451,6.98,11.678,11.678,0,0,0-1.179,4.29Zm7.84,14.563,0.2-.7c1.064-3.753,5.184-5.892,9.32-4.921a15.089,15.089,0,0,0,2.384,5.251l8.607,13.7L993.5,942.249C989.241,941.052,986.675,936.946,987.771,933.079Zm19.089,38.635a5.117,5.117,0,0,1,5.56-4.668,5.171,5.171,0,0,1,4.69,5.582l-1.4,16.4a5.145,5.145,0,0,1-10.25-.914Z" transform="translate(-967.375 -813.281)"/>
</svg>
