<svg xmlns="http://www.w3.org/2000/svg" width="224.844" height="176.031" viewBox="0 0 224.844 176.031">
  <defs>
    <style>
      .cls-1 {
        fill: #fff;
        fill-rule: evenodd;
      }
    </style>
  </defs>
  <path id="Export" class="cls-1" d="M526.831,427H322a10,10,0,0,1-10-10V291.274a10,10,0,0,1,10-10L387,281l-10.45,20H332V407H517V301H472.94L461,281l65.831,0.274a10,10,0,0,1,10,10V417A10,10,0,0,1,526.831,427Zm-44.713-72.491s-1.467.779-7.661-1.262l-40.614-8.637s-10.591-2.278-19.389.736l-39.717,8.777s-5.569,1.03-6.634.379a25.957,25.957,0,0,1,2.772-6.291l48.938-94.825s3.541-5.822,7,.616L479.62,347.58S482.965,353.247,482.118,354.509Z" transform="translate(-312 -250.969)"/>
</svg>
