<svg xmlns="http://www.w3.org/2000/svg" width="204" height="159.375" viewBox="0 0 204 159.375">
  <defs>
    <style>
      .cls-1 {
        fill: #fff;
        fill-rule: evenodd;
      }
    </style>
  </defs>
  <path id="Finish" class="cls-1" d="M1139.91,668.523a4.276,4.276,0,0,1-5.06,3.309l-95.83-20.041-5.89,27.457a11.743,11.743,0,0,1-2.99,20.4l2.83,22.125L1025.6,723l-2.96-23.131a11.744,11.744,0,0,1,3.35-22.976l5.71-26.629-92.286-19.3a4.27,4.27,0,0,1-1.23-7.9l-0.639-.134c14.029-10.442,38.621-15.648,68.375-14.3,4.85-9,17.49-14.371,32.29-13.925a21.3,21.3,0,0,1,.51-5.742c1.51-7.219,7.64-12.045,13.7-10.777s9.57,8.111,8.25,15.367a23.389,23.389,0,0,1-1.63,5.55c13.71,5.573,23.07,15.592,23.82,25.788,27.52,10.69,47.97,25.229,56.75,40.289l-0.47-.1A4.266,4.266,0,0,1,1139.91,668.523Zm-113.35,13.719a6.41,6.41,0,1,0,5.9,6.879A6.412,6.412,0,0,0,1026.56,682.242Zm24.86-96.62c-2.31-.483-4.69,1.564-5.32,4.572-0.95,4.542,1.02,5.444,3.33,5.927s4.19,0.386,5.03-4.178C1055.02,588.92,1053.73,586.1,1051.42,585.622Zm19.79,43.9a36.67,36.67,0,0,0-.48-8.925c0.23,0.076.48,0.146,0.71,0.223a19.524,19.524,0,0,0-1.48-2.611c-0.06-.125-0.12-0.25-0.18-0.368a1.988,1.988,0,0,0-.44-0.493c-4.4-5.96-12.48-10.939-22.38-13.009-10.16-2.124-19.79-.681-26.22,3.241l-0.09-.011s-0.26.172-.67,0.509a19.43,19.43,0,0,0-1.94,1.461c0.14,0.014.28,0.034,0.42,0.049a15.685,15.685,0,0,0-3.61,8.378c-25.478-2.294-47.654-.1-62.433,6.987l172.263,36.022C1113.9,648.6,1094.82,637.444,1071.21,629.52Zm52.95-23.068-16.33,6.926a5.573,5.573,0,0,1-7.29-2.92,5.517,5.517,0,0,1,2.93-7.249l16.33-6.926a5.561,5.561,0,0,1,7.28,2.92A5.5,5.5,0,0,1,1124.16,606.452Zm-13.68-19.177a5.658,5.658,0,0,1-7.68,2.012,5.512,5.512,0,0,1-2.09-7.57l8.94-15.332a5.656,5.656,0,0,1,7.68-2.012,5.512,5.512,0,0,1,2.09,7.57Zm-25.78,8.777a5.55,5.55,0,0,1-5.32-5.753l0.72-17.668a5.55,5.55,0,0,1,11.09.464l-0.72,17.667A5.53,5.53,0,0,1,1084.7,596.052Z" transform="translate(-936 -563.625)"/>
</svg>
