<svg xmlns="http://www.w3.org/2000/svg" width="200" height="200" viewBox="0 0 200 200">
  <metadata><?xpacket begin="﻿" id="W5M0MpCehiHzreSzNTczkc9d"?>
<x:xmpmeta xmlns:x="adobe:ns:meta/" x:xmptk="Adobe XMP Core 5.6-c142 79.160924, 2017/07/13-01:06:39        ">
   <rdf:RDF xmlns:rdf="http://www.w3.org/1999/02/22-rdf-syntax-ns#">
      <rdf:Description rdf:about=""/>
   </rdf:RDF>
</x:xmpmeta>
                                                                                                    
                                                                                                    
                                                                                                    
                                                                                                    
                                                                                                    
                                                                                                    
                                                                                                    
                                                                                                    
                                                                                                    
                                                                                                    
                                                                                                    
                                                                                                    
                                                                                                    
                                                                                                    
                                                                                                    
                                                                                                    
                                                                                                    
                                                                                                    
                                                                                                    
                                                                                                    
                           
<?xpacket end="w"?></metadata>
<defs>
    <style>
      .cls-1 {
        fill: #fff;
        fill-rule: evenodd;
      }
    </style>
  </defs>
  <path id="Grid_Snap" data-name="Grid Snap" class="cls-1" d="M1128.97,1156.99h5.08c2.63,0,20.95,1.8,20.95,4.01s-18.32,4.01-20.95,4.01h-5.08v43.08c14.66,0.24,24.03.69,24.03,0.69v0.83s-9.37.8-24.03,1.29v18.83c0,10.47-.33,19.68-0.7,26.66,6.69,0.22,10.65.44,10.65,0.44v0.83s-4.01.41-10.76,0.82c-0.42,7.27-.84,11.61-0.84,11.61h-0.83s-0.18-4.29-.38-11.5c-6.73.38-15.72,0.73-26,.73H1082.5c-0.16,6.78-.29,11.44-0.29,11.44,0,2.63-.99,15.24-3.21,15.24a1.442,1.442,0,0,1-1.02-1h-0.37s-0.01-.34-0.03-0.98c-1.22-3.66-1.79-11.28-1.79-13.26,0,0-.13-4.69-0.29-11.44H1031c-0.25,15.6-.61,25.68-0.61,25.68h-0.83s-0.82-10.08-1.31-25.68h-16.32c-10.92,0-20.484-.37-27.556-0.75-0.194,7.22-.378,11.52-0.378,11.52h-0.829s-0.421-4.35-.838-11.64c-6.756-.4-10.76-0.79-10.76-0.79v-0.83s3.962-.17,10.651-0.35c-0.371-6.99-.71-16.24-0.71-26.75v-18.78c-16.076-.48-26.51-1.34-26.51-1.34v-0.83s10.439-.37,26.51-0.62v-43.67c-6.691-.15-11.272-0.28-11.272-0.28-2.391,0-13-.82-14.913-2.64-0.2,0-.325-0.01-0.325-0.01v-0.83a0.607,0.607,0,0,0,.1-0.01c1-2.01,12.623-2.93,15.139-2.93,0,0,4.612-.13,11.272-0.29v-15.96c0-10.71.377-20.03,0.772-26.85-6.727-.18-10.713-0.35-10.713-0.35v-0.83s4.032-.39,10.831-0.79c0.393-6.28.767-9.98,0.767-9.98H984s0.208,3.65.416,9.86c7.069-.38,16.618-0.75,27.518-0.75h16.31c0.49-15.13,1.32-24.85,1.32-24.85h0.83s0.47,9.72.7,24.85h43.9v-4.9c0-2.02,1.06-13.27,2.55-18.4,0.04-1,.07-1.55.07-1.55h0.49a1.386,1.386,0,0,1,.9-1c2.22,0,4.01,18.32,4.01,20.95v4.9h17.1c10.26,0,19.23.35,25.96,0.72,0.21-6.19.42-9.83,0.42-9.83h0.83s0.37,3.68.76,9.95c6.81,0.41,10.84.82,10.84,0.82v0.83s-3.98.23-10.71,0.44c0.39,6.81.76,16.09,0.76,26.76v15.45ZM1103.98,1256c8.64,0,16.21.15,22.07,0.32-0.2-7.97-.39-18.85-0.39-31.18V1211c-5.6.16-11.85,0.27-18.57,0.27h-24.08v11.87c0,10.07-.23,23.01-0.44,32.86h21.41Zm-28.56,0c-0.21-9.45-.43-21.64-0.43-30.95v-13.78h-43.77v20.54c0,8.82-.07,17.01-0.17,24.19h44.37Zm-58.9,0h11.63c-0.15-5.68-.25-12-0.25-18.75v-25.98h-25.15c-6.429,0-12.455-.09-17.926-0.23v14.1c0,12.38-.194,23.3-0.394,31.28C992.473,1256.21,1003.72,1256,1016.52,1256Zm-31.7-47.89c6.984-.09,14.885-0.16,23.366-0.16h19.71v-42.94h-10.04c-10.13,0-23.164-.23-33.036-0.44v43.54Zm31.7-92.94c-12.77,0-24-.21-32.04-0.42,0.182,5.98.344,13.87,0.344,22.93v19.75c9.478-.21,21.766-0.44,31.126-0.44h11.95v-24.08c0-6.39.1-12.36,0.25-17.74h-11.63Zm87.46,0h-20.97v9.11c-0.98-.12-1.97-0.19-2.98-0.23a0.487,0.487,0,0,0,.01.12c-0.59-.03-1.18-0.04-1.77-0.04-0.49,0-.99.01-1.48,0.03v-0.12c-0.6.03-1.2,0.07-1.8,0.13v-9h-43.85c0.05,4.08.08,8.49,0.08,13.17v28.65h10.06a37.275,37.275,0,0,0-.28,4.51c0,1.19.06,2.36,0.17,3.51h-9.95v42.94h43.77v-9.12c1.16,0.11,2.33.17,3.51,0.17a37.275,37.275,0,0,0,4.51-.28v9.23h28.65c5,0,9.69.04,14,.1v-43.04h-9.83c0.08-.87.13-1.75,0.15-2.63h-0.12c0-.22.02-0.43,0.02-0.65,0-.88-0.05-1.74-0.1-2.59h0.14c-0.05-.72-0.11-1.44-0.2-2.15h9.94v-19.31c0-9.01.16-16.86,0.34-22.83C1120.14,1115.02,1112.59,1115.17,1103.98,1115.17Zm-25.71,78.45a31.89,31.89,0,1,1,31.89-31.89A31.893,31.893,0,0,1,1078.27,1193.62Zm0-60.94a29.045,29.045,0,1,0,29.05,29.05A29.04,29.04,0,0,0,1078.27,1132.68Zm0,54.27a25.23,25.23,0,1,1,25.22-25.23A25.229,25.229,0,0,1,1078.27,1186.95Z" transform="translate(-955 -1086)"/>
</svg>
