<?xml version="1.0" encoding="utf-8"?>
<!-- Generator: Adobe Illustrator 22.1.0, SVG Export Plug-In . SVG Version: 6.00 Build 0)  -->
<svg version="1.1" id="Layer_1" xmlns="http://www.w3.org/2000/svg" xmlns:xlink="http://www.w3.org/1999/xlink" x="0px" y="0px"
	 viewBox="0 0 224.8 175.8" style="enable-background:new 0 0 224.8 175.8;" xml:space="preserve">
<style type="text/css">
	.st0{fill:#FFFFFF;}
</style>
<title>Import</title>
<path id="Import" class="st0" d="M214.8,175.8H10c-5.5,0-10-4.5-10-10V40.1c0-5.5,4.5-10,10-10h44.4l10.1,19.7H20v106h185v-106
	h-44.1l10.1-19.7h43.8c5.5,0,10,4.5,10,10v125.7C224.8,171.3,220.4,175.8,214.8,175.8z M114.3,100.2l52.6-93.1c0,0,3.3-5.6,2.5-6.9
	c0,0-1.5-0.8-7.6,1.3l-40.5,8.6c0,0-10.6,2.3-19.3-0.7L62.4,0.6c0,0-5.5-1-6.6-0.4c0.6,2.2,1.6,4.3,2.8,6.3l48.8,94.3
	C107.3,100.8,110.8,106.6,114.3,100.2z M214.8,175.8H10c-5.5,0-10-4.5-10-10V40.1c0-5.5,4.5-10,10-10h44.4l10.1,19.7H20v106h185
	v-106h-44.1l10.1-19.7h43.8c5.5,0,10,4.5,10,10v125.7C224.8,171.3,220.4,175.8,214.8,175.8L214.8,175.8z"/>
</svg>
