<svg xmlns="http://www.w3.org/2000/svg" width="174" height="250.156" viewBox="0 0 174 250.156">
  <defs>
    <style>
      .cls-1 {
        fill: #fff;
        fill-rule: evenodd;
      }
    </style>
  </defs>
  <path id="New_Combo" data-name="New Combo" class="cls-1" d="M1042,272a86.986,86.986,0,0,1-41.67-163.349l-0.7,7.055a81.209,81.209,0,1,0,74.5-5.325l10-1.5A87,87,0,0,1,1042,272Zm15.61-149.559-3.33-18.111-16.49-8.2,18.11-3.33,8.21-16.487,3.33,18.111,16.48,8.2-18.11,3.33ZM1004.1,112.5l6.29,9.466,11.34,0.645-9.46,6.292-0.65,11.348-6.29-9.466-11.346-.645,9.466-6.292Zm0.51-6.053a86.569,86.569,0,0,1,26.56-7.752l9.77,5.1a80.909,80.909,0,0,0-32.57,7.281Zm45.28,4.976L1056,135l11.39-19.528a74.048,74.048,0,1,1-78.655,18.187L1002,136l13,14,2-18,13-11-16-3-0.92-1.132A73.751,73.751,0,0,1,1042,111,74.813,74.813,0,0,1,1049.89,111.423Zm-33.32-15.639-11.2-27.071-28.378-7.284,27.068-11.2,7.29-28.377,11.2,27.071,28.37,7.284-27.07,11.2Z" transform="translate(-955 -21.844)"/>
</svg>
