<svg xmlns="http://www.w3.org/2000/svg" width="193" height="223" viewBox="0 0 193 223">
  <defs>
    <style>
      .cls-1 {
        fill: #fff;
        fill-rule: evenodd;
      }
    </style>
  </defs>
  <path id="New" class="cls-1" d="M485.176,1154.18V1190H451.823v-35.82H416v-33.36h35.823V1085h33.353v35.82H521v33.36H485.176ZM405,1045H348v121h59v21H338a10,10,0,0,1-10-10V1025.93l5.918-6.01-0.06-.06,8.188-8.19,5.954-6.04v0.09L365.716,988h-0.348l20.691-21H489a10,10,0,0,1,10,10v98H480V988H405m-12.179,0L393,988.179M393,989l-44,44h44V989Z" transform="translate(-328 -967)"/>
</svg>
