<svg xmlns="http://www.w3.org/2000/svg" width="192" height="190" viewBox="0 0 192 190">
  <defs>
    <style>
      .cls-1 {
        fill: #fff;
        fill-rule: evenodd;
      }
    </style>
  </defs>
  <path id="Preferences" class="cls-1" d="M816,678.705a26.605,26.605,0,0,1-17.455,24.96v63.156a9.187,9.187,0,0,1-18.373,0V703.665a26.573,26.573,0,0,1,0-49.919V595.179a9.187,9.187,0,0,1,18.373,0v58.567A26.6,26.6,0,0,1,816,678.705Zm-87.273,78.2v9.92a9.187,9.187,0,0,1-18.373,0V756.9a26.572,26.572,0,0,1,0-49.918v-111.8a9.187,9.187,0,0,1,18.373,0v111.8A26.572,26.572,0,0,1,728.727,756.9Zm-68.9-100.966V766.821a9.187,9.187,0,0,1-18.373,0V655.935a26.573,26.573,0,0,1,0-49.919V595.179a9.187,9.187,0,0,1,18.373,0v10.837A26.573,26.573,0,0,1,659.828,655.935Z" transform="translate(-624 -586)"/>
</svg>
