<svg xmlns="http://www.w3.org/2000/svg" width="207" height="191" viewBox="0 0 207 191">
  <defs>
    <style>
      .cls-1 {
        fill: #fff;
        fill-rule: evenodd;
      }
    </style>
  </defs>
  <path id="Save" class="cls-1" d="M528,501V649a10,10,0,0,1-10,10H331a10,10,0,0,1-10-10V478.23a10,10,0,0,1,10-10L494,468c0.075,0.067.174,0.158,0.269,0.245l0.243-.244,17.042,17.071C518.728,492.108,525.81,499.039,528,501ZM373,639H476V568H373v71Zm90-150H385v36h78V489Zm1.64,47.428H382.52a10,10,0,0,1-10-10V489H341V639h19.56V565.782a10,10,0,0,1,10-10H477.52a10,10,0,0,1,10,10V639H508V508.882L488.152,489H474.64v37.428A10,10,0,0,1,464.64,536.428Z" transform="translate(-321 -468)"/>
</svg>
