<svg xmlns="http://www.w3.org/2000/svg" width="216" height="208" viewBox="0 0 216 208">
  <defs>
    <style>
      .cls-1 {
        fill: #fff;
        fill-rule: evenodd;
      }
    </style>
  </defs>
  <path id="Save_As" data-name="Save As" class="cls-1" d="M501.176,879.176V915H467.823V879.176H432V845.823h35.823V810h33.353v35.823H537v33.353H501.176ZM508,747.882L488.152,728H474.64v37.428a10,10,0,0,1-10,10H382.52a10,10,0,0,1-10-10V728H341V878h19.56V804.782a10,10,0,0,1,10-10H477.52A10,10,0,0,1,486.3,800H422v7H373v71h49v20H331a10,10,0,0,1-10-10V717.23a10,10,0,0,1,10-10L494,707c0.075,0.067.174,0.158,0.269,0.245l0.243-.244,17.042,17.071C518.728,731.108,525.81,738.039,528,740v60H508V747.882ZM463,728H385v36h78V728Z" transform="translate(-321 -707)"/>
</svg>
