<svg xmlns="http://www.w3.org/2000/svg" width="205.031" height="198.938" viewBox="0 0 205.031 198.938">
  <defs>
    <style>
      .cls-1 {
        fill: #fff;
        fill-rule: evenodd;
      }
    </style>
  </defs>
  <path id="Select_song" class="cls-1" d="M831.749,209.346L797.8,219.1s-8.865,2.523-14.278,8.343l-26.359,22.611s-3.775,3.018-4.835,2.951a22.508,22.508,0,0,1-.416-5.889L751,155.465s0.347-5.843,5.5-2.341l76.873,49.847s4.765,2.959,4.63,4.258C838.007,207.229,837.214,208.409,831.749,209.346ZM763,72L687,86V198c-2.151,7.863-8.287,14.861-19,21-6.285,3.707-13.042,4.073-19.67,4.073a17.07,17.07,0,0,1-10.846-3.621,11.812,11.812,0,0,1-4.518-9.5c0-6.184,4.218-12.37,9.941-16.9,5.725-4.676,12.954-7.694,18.979-7.694,5.273,0,9.791.754,12.5,3.319V72.327L776.024,54.058l0.03,100.6-12.832-8.269ZM738,175c4.16-2.946,3.939-2.924,6-3.487v33.816a16.452,16.452,0,0,1-8.609-3.477,11.81,11.81,0,0,1-4.519-9.5C730.872,186.162,731.977,179.121,738,175Z" transform="translate(-632.969 -54.063)"/>
</svg>
