<svg xmlns="http://www.w3.org/2000/svg" width="173" height="189.094" viewBox="0 0 173 189.094">
  <defs>
    <style>
      .cls-1 {
        fill: #fff;
        fill-rule: evenodd;
      }
    </style>
  </defs>
  <path id="Select" class="cls-1" d="M199,156V136h15v30Zm0-65h15v30H199V91Zm0-30H184V46h30V76H199V61ZM138,46h30V61H138V46ZM93,196h30v15H93V196ZM93,46h30V61H93V46ZM48,211V181H63v15H78v15H48ZM63,76H48V46H78V61H63V76Zm0,45H48V91H63v30Zm0,45H48V136H63v30Zm71.887-28.849,0.383,91.757s-0.086,5.618,1.077,6.2c0,0,1.419-.045,5.155-4.184L168.008,207.3s6.9-6.179,14.71-7.675l33.21-10.333s4.572-1.6,5.087-2.532a22.122,22.122,0,0,0-4.72-3.488l-76.474-49.541S134.728,130.914,134.887,137.151Z" transform="translate(-48 -46)"/>
</svg>
