<svg xmlns="http://www.w3.org/2000/svg" width="217" height="217" viewBox="0 0 217 217">
  <defs>
    <style>
      .cls-1 {
        fill: #fff;
        fill-rule: evenodd;
      }
    </style>
  </defs>
  <path id="Settings" class="cls-1" d="M825.775,418.1l-19.136,4.822a105.053,105.053,0,0,1-5.756,13.613L811.1,453.6l0.872,0.873-33.432,33.431-0.866-.866-17-10.154a105.25,105.25,0,0,1-13.79,5.833L742.1,501.771V503h-47.28v-1.237l-4.792-19.123a105.28,105.28,0,0,1-13.679-5.784l-17.013,10.182-0.869.868-33.432-33.431,0.875-.875,10.2-17.02a104.956,104.956,0,0,1-5.8-13.774l-19.074-4.785H610V370.806h1.237l19.073-4.772a105.258,105.258,0,0,1,5.855-13.808L626.016,335.28l-0.869-.869,33.386-33.386,0.875,0.875,16.985,10.186a105.1,105.1,0,0,1,13.624-5.743l4.81-19.11V286h47.346v1.225l4.819,19.1A105.5,105.5,0,0,1,760.6,312.08l17.009-10.168,0.872-.872,33.478,33.478-0.866.866L800.93,352.408a105.094,105.094,0,0,1,5.761,13.614l19.075,4.8H827V418.1h-1.225Zm-17.713-32.781L792,381.279l-0.337.142c-0.021-.081-0.044-0.162-0.066-0.243l-0.105-.026,0.047-.186a109.183,109.183,0,0,0-11.827-28.247l-0.415-.248,0.133-.222c-0.058-.1-0.114-0.192-0.172-0.287l0.458-.192,8.49-14.221L775.357,324.7l-14.063,8.407-0.267.635A108.873,108.873,0,0,0,732.511,321.6l-0.738.186-0.105-.415c-0.048-.013-0.1-0.027-0.144-0.039l0.084-.2-4.087-16.2H709.346l-4.081,16.215,0.087,0.208-0.15.04-0.026.1-0.186-.047A109.3,109.3,0,0,0,676.5,333.375l-0.079.132-0.07-.042c-0.153.092-.308,0.181-0.46,0.275L675.58,333,661.727,324.7l-12.815,12.816,8.6,14.36,0.228,0.095-0.086.143,0.212,0.353-0.658.391a109.277,109.277,0,0,0-11.686,27.905l0.094,0.368-0.208.052c-0.024.09-.05,0.179-0.073,0.269l-0.375-.157L629,385.285V403.41l16.9,4.24-0.254,1a108.815,108.815,0,0,0,11.8,27.9l0.078,0.047-0.025.042c0.081,0.134.159,0.269,0.241,0.4l-0.644.27-8.378,13.982,12.833,12.834,14.269-8.54c0.046-.109.092-0.219,0.137-0.328,0.069,0.042.138,0.081,0.206,0.123l0.343-.206,0.381,0.64a109.231,109.231,0,0,0,27.907,11.658l0.358-.091,0.05,0.2,0.2,0.053c-0.039.091-.077,0.183-0.115,0.274L709.316,484h18.149l4.1-16.312c0-.009-0.008-0.017-0.011-0.026l0.018,0,0.141-.561,0.993,0.252a108.964,108.964,0,0,0,27.608-11.659l0.26-.436,0.234,0.14,0.226-.136c0.051,0.121.1,0.241,0.152,0.361l14.306,8.548,12.834-12.833-8.435-14.1-0.629-.264A108.563,108.563,0,0,0,791.4,408.447l-0.186-.736,0.415-.1c0-.018.01-0.035,0.014-0.053l0.073,0.031,16.35-4.12V385.316ZM718.5,441.056A46.556,46.556,0,1,1,765.056,394.5,46.556,46.556,0,0,1,718.5,441.056Zm0-74.174A27.618,27.618,0,1,0,746.118,394.5,27.618,27.618,0,0,0,718.5,366.882Z" transform="translate(-610 -286)"/>
</svg>
