<svg xmlns="http://www.w3.org/2000/svg" width="182.031" height="176" viewBox="0 0 182.031 176">
  <defs>
    <style>
      .cls-1 {
        fill: #fff;
        fill-rule: evenodd;
      }
    </style>
  </defs>
  <path id="Whistle" class="cls-1" d="M1133,458.719a17.333,17.333,0,0,1-17.32,17.34,17.111,17.111,0,0,1-8.18-2.086,54.568,54.568,0,0,1-96.2-47.757l-57.283-48.405,0.556,0.278c-3.378-3.044-3.465-4.335-3.465-4.335a13.22,13.22,0,0,1,0-3.468l-0.045-.046,3.833-23.066a3,3,0,0,1,1.409-2.031,3.588,3.588,0,0,1,1.891.078l116.774,38.937s8.85,4.168,8.66,4.335c19.14,7.966,35.51,29.207,35.51,52.886,0,0.072-.87.143-0.87,0.215A17.327,17.327,0,0,1,1133,458.719Zm-104.84-78.283-3.43,9.872,14.39,5.117,3.43-9.872Zm72.09,38.292c-4.88-11.127-21.2-18.8-30.89-22.5-2.35-1.139-4.85-2.269-7.49-3.366l-15.17-5.341-3.87,11a2.042,2.042,0,0,1-2.61,1.252l-19.29-6.792a2.04,2.04,0,0,1-1.25-2.611l3.86-11L965,359l-3.5,13.02,62.578,50.785a5.935,5.935,0,0,1,.65,1.234,1.666,1.666,0,0,1-.02.2l0.23,0.2A42.888,42.888,0,1,0,1100.25,418.728Zm17.43,30.674a54.246,54.246,0,0,1-5.97,17.968,9.489,9.489,0,0,0,13.49-8.649A9.53,9.53,0,0,0,1117.68,449.4Zm-53.97,23.189a31.212,31.212,0,1,1,31.18-31.212A31.2,31.2,0,0,1,1063.71,472.591Zm0.25-55.488a24.524,24.524,0,1,0,24.49,24.524A24.506,24.506,0,0,0,1063.96,417.1Zm10.24-56.593-14.84,9.725a5.534,5.534,0,1,1-6.11-9.228l14.84-9.725A5.534,5.534,0,1,1,1074.2,360.51Zm-16.88-16.431a5.66,5.66,0,0,1-7.2,3.348,5.518,5.518,0,0,1-3.41-7.077l6.07-16.68a5.659,5.659,0,0,1,7.2-3.348,5.5,5.5,0,0,1,3.4,7.077Zm-23.8,13.228a5.557,5.557,0,0,1-6.27-4.713l-2.44-17.512a5.552,5.552,0,0,1,11-1.52l2.44,17.513A5.532,5.532,0,0,1,1033.52,357.307Z" transform="translate(-950.969 -320)"/>
</svg>
